{"accessors" : [{"bufferView" : 0, "byteOffset" : 0, "componentType" : 5123, "count" : 1314, "type" : "SCALAR", "max" : [1069], "min" : [0]}, {"bufferView" : 1, "byteOffset" : 0, "componentType" : 5126, "count" : 1070, "type" : "VEC3", "max" : [26.11297607421875, 56.731903076171875, 24.088668823242188], "min" : [-33.3338623046875, 0, -27.513580322265625], "name" : "POSITION"}, {"bufferView" : 1, "byteOffset" : 12, "componentType" : 5126, "count" : 1070, "type" : "VEC2", "max" : [3.2812108993530273, -0.03511799871921539], "min" : [-2.979609966278076, -1.6437530517578125], "name" : "TEXCOORD_0"}, {"bufferView" : 1, "byteOffset" : 20, "componentType" : 5126, "count" : 1070, "type" : "VEC3", "max" : [0.9994134306907654, 1.0000044107437134, 0.9994134306907654], "min" : [-0.9994134306907654, -1.0000044107437134, -0.9994134306907654], "name" : "NORMAL"}], "asset" : {"generator" : "Aspose.3D 23.2", "version" : "2.0"}, "buffers" : [{"uri" : "data:application/octet-stream;base64,", "byteLength" : 44684}], "bufferViews" : [{"buffer" : 0, "byteOffset" : 0, "byteLength" : 2628, "target" : 34963}, {"buffer" : 0, "byteOffset" : 2632, "byteLength" : 42048, "byteStride" : 32, "target" : 34962}], "meshes" : [{"primitives" : [{"attributes" : {"POSITION" : 1, "TEXCOORD_0" : 2, "NORMAL" : 3}, "indices" : 0, "mode" : 4}], "name" : ""}], "nodes" : [{"mesh" : 0, "name" : "polySurface9"}], "scene" : 0, "scenes" : [{"nodes" : [0]}]}